# xmcd CD database file
#
# Track frame offsets:
#	150
#	31425
#	65030
#	90768
#	119740
#	129498
#	145158
#	176576
#	197119
#	219092
#	226731
#
# Disc length: 3421 seconds
#
# Revision: 0
# Processed by: cddbd v1.5.2PL0 Copyright (c) Steve Scherf et al.
# Submitted via: CDex 1.51
#
DISCID=960d5b0b
DTITLE=Manfred Bründl's Silent Bass - Crosshatched
DYEAR=2008
DGENRE=Jazz
TTITLE0=Madder
TTITLE1=On a Red Cloud
TTITLE2=Crosshatched
TTITLE3=Pompeji Red
TTITLE4=Zips
TTITLE5=Who's Afraid of FRed
TTITLE6=Night Bird
TTITLE7=Golden ...
TTITLE8=Ratio
TTITLE9=The Subtime Intro
TTITLE10=The Subtime
EXTD=YEAR: 2008
EXTT0=
EXTT1=
EXTT2=
EXTT3=
EXTT4=
EXTT5=
EXTT6=
EXTT7=
EXTT8=
EXTT9=
EXTT10=
PLAYORDER=
